<?xml version="1.0" standalone="no"?>
<!DOCTYPE svg PUBLIC "-//W3C//DTD SVG 20010904//EN"
 "http://www.w3.org/TR/2001/REC-SVG-20010904/DTD/svg10.dtd">
<svg version="1.0" xmlns="http://www.w3.org/2000/svg"
 width="1024.000000pt" height="1024.000000pt" viewBox="0 0 1024.000000 1024.000000"
 preserveAspectRatio="xMidYMid meet">

<g transform="translate(0.000000,1024.000000) scale(0.100000,-0.100000)"
fill="#000000" stroke="none">
<path d="M5690 9065 c0 -48 2 -55 20 -55 18 0 20 -7 20 -75 0 -67 -2 -75 -19
-75 -17 0 -20 -11 -26 -99 -7 -92 -9 -100 -29 -103 -18 -3 -21 -11 -24 -55 -3
-49 -5 -53 -28 -53 -19 0 -24 -5 -24 -25 0 -20 -5 -25 -25 -25 -23 0 -25 -3
-25 -50 0 -47 -2 -50 -25 -50 -20 0 -25 -5 -25 -25 0 -20 -5 -25 -24 -25 -19
0 -25 -6 -28 -27 -2 -20 -9 -29 -25 -31 -14 -2 -23 -11 -25 -25 -2 -16 -11
-23 -30 -25 -22 -3 -28 -9 -28 -28 0 -19 -5 -24 -25 -24 -20 0 -25 -5 -25 -25
0 -23 -3 -25 -50 -25 -47 0 -50 -2 -50 -25 0 -20 -5 -25 -25 -25 -20 0 -25 -5
-25 -25 0 -20 -5 -25 -25 -25 -20 0 -25 -5 -25 -24 0 -19 -6 -25 -27 -28 -20
-2 -29 -9 -31 -25 -3 -18 -12 -23 -47 -29 -35 -5 -45 -11 -47 -28 -2 -15 -11
-22 -30 -24 -22 -3 -28 -9 -28 -28 0 -19 -5 -24 -25 -24 -20 0 -25 -5 -25 -25
0 -20 -5 -25 -25 -25 -20 0 -25 -5 -25 -25 0 -20 -5 -25 -25 -25 -20 0 -25 -5
-25 -25 0 -20 -5 -25 -25 -25 -20 0 -25 -5 -25 -25 0 -20 -5 -25 -25 -25 -20
0 -25 -5 -25 -25 0 -20 -5 -25 -24 -25 -19 0 -25 -6 -28 -27 -2 -20 -9 -29
-25 -31 -19 -3 -22 -11 -25 -50 -3 -40 -6 -47 -25 -50 -23 -3 -23 -5 -23 -153
0 -140 1 -149 19 -149 16 0 21 -10 26 -55 6 -44 11 -55 26 -55 14 0 20 -10 25
-50 6 -44 9 -50 30 -50 19 0 24 -5 24 -25 0 -20 5 -25 25 -25 23 0 25 -3 25
-50 0 -47 2 -50 25 -50 20 0 25 -5 25 -25 0 -20 5 -25 25 -25 20 0 25 -5 25
-25 0 -20 5 -25 25 -25 20 0 25 -5 25 -25 0 -20 5 -25 24 -25 19 0 25 -6 28
-27 2 -22 9 -29 31 -31 21 -3 27 -9 27 -28 0 -19 5 -24 25 -24 20 0 25 -5 25
-25 0 -20 5 -25 25 -25 20 0 25 -5 25 -25 0 -20 5 -25 25 -25 20 0 25 -5 25
-25 0 -20 5 -25 25 -25 20 0 25 5 25 25 0 20 -5 25 -25 25 -23 0 -25 3 -25 50
0 47 -2 50 -25 50 -20 0 -25 5 -25 25 0 20 -5 25 -24 25 -21 0 -25 6 -31 49
-5 41 -11 50 -28 53 -16 2 -23 11 -25 31 -3 21 -9 27 -28 27 -22 0 -24 4 -24
50 0 47 -2 50 -25 50 -21 0 -25 5 -25 30 0 23 -5 30 -19 30 -20 0 -31 34 -31
101 0 35 -3 39 -25 39 l-25 0 0 130 0 130 25 0 c24 0 25 2 25 75 0 73 1 75 25
75 21 0 25 5 25 30 0 25 4 30 24 30 20 0 25 6 30 44 6 36 11 45 29 48 16 2 23
11 25 31 3 21 9 27 28 27 19 0 24 5 24 25 0 20 5 25 25 25 20 0 25 5 25 25 0
20 5 25 25 25 20 0 25 5 25 24 0 21 6 25 50 31 44 6 50 10 50 31 0 19 5 24 25
24 20 0 25 5 25 25 0 20 5 25 24 25 18 0 25 6 28 23 2 16 11 23 31 25 21 3 27
9 27 28 0 19 5 24 25 24 20 0 25 5 25 25 0 20 5 25 25 25 20 0 25 5 25 25 0
20 5 25 25 25 20 0 25 5 25 25 0 20 5 25 25 25 20 0 25 5 25 25 0 20 5 25 25
25 21 0 25 5 25 30 0 25 4 30 25 30 23 0 25 4 25 45 0 41 2 45 24 45 21 0 24
6 30 50 5 40 11 50 25 50 15 0 20 11 26 55 5 44 10 55 24 55 15 0 19 12 25 77
8 97 8 259 0 356 -6 67 -9 76 -28 79 -15 2 -22 11 -24 31 -2 19 -9 27 -23 27
-16 0 -19 -7 -19 -55z"/>
<path d="M6150 8065 c0 -24 -3 -25 -55 -25 -52 0 -55 -1 -55 -25 0 -22 -4 -25
-37 -25 -72 0 -113 -11 -113 -30 0 -14 -11 -20 -49 -25 -41 -5 -50 -11 -53
-28 -3 -19 -11 -22 -50 -25 -39 -3 -47 -6 -50 -25 -2 -16 -11 -23 -30 -25 -22
-3 -28 -9 -28 -28 0 -22 -4 -24 -50 -24 -47 0 -50 -2 -50 -25 0 -20 -5 -25
-25 -25 -20 0 -25 -5 -25 -25 0 -21 -5 -25 -30 -25 -25 0 -30 -4 -30 -24 0
-20 -6 -25 -44 -30 -44 -7 -45 -8 -52 -51 -5 -35 -11 -45 -28 -47 -15 -2 -22
-11 -24 -30 -3 -22 -9 -28 -28 -28 -22 0 -24 -4 -24 -50 0 -47 -2 -50 -25 -50
l-25 0 2 -177 c3 -176 3 -178 26 -181 18 -3 22 -10 22 -40 0 -73 11 -112 31
-112 14 0 19 -7 19 -25 0 -20 5 -25 24 -25 21 0 25 -6 31 -50 6 -44 10 -50 31
-50 19 0 24 -5 24 -25 0 -20 5 -25 25 -25 21 0 25 -5 25 -30 0 -25 4 -30 25
-30 l25 0 0 -150 0 -150 -25 0 c-23 0 -25 -3 -25 -50 0 -47 2 -50 25 -50 20 0
25 5 25 25 0 20 5 25 25 25 20 0 25 5 25 25 0 20 5 25 25 25 20 0 25 5 25 25
0 20 5 25 25 25 20 0 25 5 25 25 0 20 5 25 24 25 21 0 25 6 31 50 6 40 11 50
26 50 18 0 19 9 19 155 l0 155 -25 0 c-21 0 -25 5 -25 30 0 23 -5 30 -19 30
-16 0 -21 9 -27 45 -5 39 -10 45 -30 45 -20 0 -24 5 -24 30 0 25 -4 30 -25 30
-23 0 -25 3 -25 50 0 47 -2 50 -25 50 -23 0 -25 3 -25 50 0 47 -2 50 -25 50
-24 0 -25 2 -25 75 0 73 1 75 25 75 24 0 25 3 25 55 0 52 1 55 25 55 20 0 25
5 25 25 0 20 5 25 24 25 20 0 25 6 30 44 6 36 11 45 29 48 16 2 23 11 25 31 3
25 7 27 48 27 40 0 44 2 44 25 0 20 5 25 25 25 20 0 25 5 25 24 0 19 6 25 28
28 19 2 28 9 30 24 2 17 12 23 47 28 35 6 44 11 47 29 2 16 11 23 31 25 21 3
27 9 27 28 0 22 4 24 50 24 47 0 50 2 50 25 0 21 5 25 30 25 25 0 30 4 30 25
0 23 4 25 45 25 41 0 45 2 45 25 0 23 -4 25 -45 25 -41 0 -45 -2 -45 -25z"/>
<path d="M6550 6325 c0 -23 3 -25 50 -25 47 0 50 -2 50 -25 0 -24 3 -25 55
-25 52 0 55 -1 55 -25 0 -20 5 -25 25 -25 21 0 25 -5 25 -30 0 -25 4 -30 25
-30 23 0 25 -3 25 -50 0 -47 2 -50 25 -50 24 0 25 -2 25 -75 0 -73 -1 -75 -25
-75 -24 0 -25 -3 -25 -55 0 -52 -1 -55 -25 -55 -23 0 -25 -4 -25 -45 0 -41 -2
-45 -25 -45 -21 0 -25 -5 -25 -30 0 -25 -4 -30 -25 -30 -20 0 -25 -5 -25 -25
0 -21 -5 -25 -30 -25 -25 0 -30 -4 -30 -25 0 -23 -4 -25 -45 -25 -41 0 -45 -2
-45 -24 0 -19 -6 -25 -27 -28 -20 -2 -29 -9 -31 -25 -3 -17 -12 -23 -53 -28
-39 -6 -49 -11 -49 -26 0 -16 8 -19 55 -19 47 0 55 3 55 19 0 20 34 31 101 31
35 0 39 3 39 25 0 21 5 25 30 25 25 0 30 4 30 25 0 23 3 25 50 25 47 0 50 2
50 25 0 20 5 25 25 25 20 0 25 5 25 24 0 21 6 25 49 31 49 7 49 7 56 51 5 34
10 44 25 44 13 0 20 8 22 28 2 19 9 28 24 30 19 3 22 12 28 89 4 47 4 126 0
174 -6 85 -8 89 -30 89 -19 0 -24 5 -24 24 0 18 -6 25 -22 28 -15 2 -24 11
-26 25 -2 14 -11 23 -25 25 -14 2 -23 11 -25 24 -3 23 -40 34 -114 34 -30 0
-38 4 -38 19 0 22 -40 31 -142 31 -66 0 -68 -1 -68 -25z"/>
<path d="M4300 6271 c0 -17 -11 -20 -105 -26 -91 -6 -105 -10 -105 -25 0 -19
-41 -30 -112 -30 -30 0 -38 -4 -38 -19 0 -20 -39 -31 -112 -31 -34 0 -38 -3
-38 -25 0 -23 -3 -25 -50 -25 -47 0 -50 -2 -50 -25 0 -20 -5 -25 -25 -25 -20
0 -25 -5 -25 -25 0 -18 5 -25 20 -25 15 0 20 -7 20 -25 0 -24 3 -25 55 -25 52
0 55 -1 55 -25 l0 -25 168 0 c202 0 242 -5 242 -31 0 -18 19 -19 510 -19 491
0 510 1 510 19 0 26 40 31 267 31 191 0 192 0 195 23 3 21 7 22 131 25 l127 3
0 24 c0 24 2 25 75 25 73 0 75 1 75 25 l0 25 -155 0 -155 0 0 -25 0 -25 -280
0 -280 0 0 -25 0 -25 -485 0 -485 0 0 25 0 25 -105 0 -105 0 0 25 c0 20 -5 25
-25 25 -21 0 -25 5 -25 30 0 25 4 30 24 30 18 0 25 6 28 23 3 19 10 22 50 25
39 3 47 6 50 25 3 20 9 22 81 25 74 3 77 4 77 27 0 20 5 25 25 25 18 0 25 5
25 20 0 15 -7 20 -25 20 -18 0 -25 -5 -25 -19z"/>
<path d="M5380 6170 c0 -13 7 -20 20 -20 13 0 20 7 20 20 0 13 -7 20 -20 20
-13 0 -20 -7 -20 -20z"/>
<path d="M6100 6070 c0 -13 7 -20 20 -20 13 0 20 7 20 20 0 13 -7 20 -20 20
-13 0 -20 -7 -20 -20z"/>
<path d="M4150 5605 c0 -21 -5 -25 -30 -25 -25 0 -30 -4 -30 -25 0 -18 -5 -25
-20 -25 -17 0 -20 -7 -20 -50 l0 -50 50 0 c47 0 50 -2 50 -25 0 -22 4 -25 38
-25 73 0 112 -11 112 -31 0 -17 9 -19 84 -19 126 0 176 -9 176 -31 0 -18 16
-19 380 -19 363 0 380 1 380 19 0 16 11 19 83 24 45 4 126 7 180 7 88 0 97 2
97 19 0 23 40 31 168 31 91 0 92 0 92 25 0 20 5 25 25 25 20 0 25 5 25 25 0
23 -3 25 -50 25 -47 0 -50 2 -50 25 l0 25 -130 0 -130 0 0 -25 0 -25 -142 0
c-79 0 -194 -3 -255 -7 -101 -5 -113 -8 -113 -25 0 -17 -10 -18 -130 -18 -123
0 -130 1 -130 20 0 13 -7 20 -20 20 -13 0 -20 -7 -20 -20 0 -16 -7 -20 -30
-20 -23 0 -30 5 -30 18 0 17 -12 20 -112 25 -62 4 -166 7 -230 7 l-118 0 0 25
c0 20 -5 25 -25 25 -23 0 -25 3 -25 50 l0 50 -50 0 c-47 0 -50 -2 -50 -25z"/>
<path d="M4300 5046 c0 -21 -6 -25 -50 -31 l-50 -7 0 -49 c0 -46 2 -49 25 -49
20 0 25 -5 25 -25 0 -20 5 -25 25 -25 18 0 25 -5 25 -19 0 -16 10 -21 55 -26
43 -6 55 -11 55 -25 0 -22 37 -30 131 -30 67 0 69 -1 69 -25 l0 -25 435 0 435
0 0 25 c0 25 1 25 88 25 122 0 162 8 162 31 0 15 7 19 34 19 18 0 54 3 80 6
l46 7 0 42 0 42 -50 7 c-39 5 -50 11 -50 25 0 27 -63 33 -257 25 -144 -6 -163
-9 -163 -24 0 -14 -16 -18 -107 -23 -135 -9 -346 -9 -490 0 -101 5 -113 8
-113 25 0 16 -9 18 -87 18 -49 0 -105 3 -125 6 -36 6 -38 8 -44 55 l-7 49 -48
0 c-45 0 -49 -2 -49 -24z"/>
<path d="M3640 4685 c0 -25 -1 -25 -80 -25 -79 0 -80 0 -80 -25 0 -23 -3 -25
-50 -25 -46 0 -50 -2 -50 -24 0 -21 -6 -25 -49 -31 -41 -5 -50 -11 -53 -28 -2
-14 -11 -23 -24 -25 -25 -4 -37 -54 -27 -114 6 -38 6 -38 54 -38 41 0 49 -3
49 -19 0 -25 40 -31 213 -31 l137 0 0 -25 0 -25 210 0 210 0 0 -25 0 -25 770
0 c746 0 770 1 770 19 0 26 35 31 231 31 l169 0 0 25 0 25 130 0 130 0 0 25
c0 24 1 24 103 27 97 3 102 4 105 26 3 17 10 22 31 22 16 0 49 3 75 6 36 5 46
11 46 25 0 14 11 20 50 25 44 6 50 9 50 30 0 19 5 24 25 24 20 0 25 5 25 25 0
20 5 25 25 25 23 0 25 4 25 45 0 41 -2 45 -25 45 -23 0 -25 -4 -25 -45 0 -41
-2 -45 -25 -45 -20 0 -25 -5 -25 -24 0 -22 -5 -25 -55 -31 -43 -6 -55 -11 -55
-25 0 -22 -37 -30 -131 -30 -67 0 -69 -1 -69 -25 l0 -25 -130 0 c-120 0 -130
-1 -130 -19 0 -27 -39 -31 -317 -31 l-243 0 0 -25 0 -25 -652 0 c-359 0 -670
3 -690 6 -28 5 -38 11 -38 25 0 18 -11 19 -167 19 -203 0 -243 5 -243 31 0 17
-8 19 -69 19 -95 0 -131 8 -131 31 0 15 -9 19 -52 21 l-53 3 -3 53 c-3 50 -2
52 22 52 21 0 26 5 26 25 0 23 3 25 50 25 47 0 50 2 50 25 0 25 1 25 80 25 79
0 80 0 80 25 l0 25 -100 0 -100 0 0 -25z"/>
<path d="M7010 4325 c0 -23 -3 -25 -50 -25 -47 0 -50 -2 -50 -25 0 -24 -2 -25
-75 -25 -73 0 -75 -1 -75 -25 0 -23 -4 -25 -44 -25 -70 0 -106 -10 -106 -30 0
-15 -14 -19 -105 -25 -91 -6 -105 -9 -105 -24 0 -15 -13 -19 -77 -25 -42 -3
-109 -6 -150 -6 -65 0 -73 -2 -73 -19 0 -25 -50 -31 -281 -31 -177 0 -189 -1
-189 -19 0 -15 -11 -19 -77 -25 -42 -3 -318 -6 -615 -6 l-538 0 0 25 0 25
-150 0 c-140 0 -150 -1 -150 -19 0 -17 12 -19 150 -26 133 -6 150 -9 150 -25
0 -15 17 -18 158 -23 204 -9 1035 -9 1230 0 133 5 152 8 152 23 0 15 17 18
122 23 66 4 147 7 180 7 50 0 58 3 58 19 0 15 11 19 77 25 42 3 100 6 130 6
45 0 53 3 53 19 0 21 34 31 106 31 36 0 44 3 44 19 0 20 39 31 113 31 33 0 37
3 37 25 0 23 3 25 50 25 47 0 50 2 50 25 0 20 5 25 25 25 20 0 25 5 25 25 0
20 5 25 25 25 20 0 25 5 25 25 0 20 -5 25 -25 25 -20 0 -25 -5 -25 -25z"/>
<path d="M3330 2746 c0 -458 -3 -848 -6 -865 -5 -21 -12 -31 -25 -31 -14 0
-19 -7 -19 -30 0 -25 -4 -30 -25 -30 -20 0 -25 -5 -25 -25 0 -20 -5 -25 -25
-25 -20 0 -25 -5 -25 -25 0 -21 -5 -25 -30 -25 -29 0 -30 -1 -30 -50 0 -47 2
-50 25 -50 20 0 25 -5 25 -25 0 -24 3 -25 55 -25 48 0 55 2 55 20 0 16 9 21
50 26 44 6 50 9 50 30 0 19 5 24 25 24 20 0 25 5 25 25 0 20 5 25 25 25 20 0
25 5 25 25 0 20 5 25 24 25 23 0 25 4 28 53 3 45 6 52 26 55 l22 3 0 865 0
864 -125 0 -125 0 0 -834z"/>
<path d="M4100 3151 c0 -20 -40 -31 -117 -31 -36 0 -43 -3 -43 -19 0 -15 -10
-20 -50 -26 -44 -6 -50 -10 -50 -31 0 -19 5 -24 25 -24 23 0 25 -3 25 -50 0
-47 2 -50 25 -50 20 0 25 5 25 25 l0 25 105 0 105 0 0 25 c0 24 2 25 75 25 73
0 75 -1 75 -25 0 -24 3 -25 55 -25 52 0 55 -1 55 -25 0 -20 5 -25 25 -25 20 0
25 -5 25 -25 0 -18 5 -25 19 -25 16 0 21 -10 26 -54 4 -30 4 -77 0 -105 l-7
-51 -174 0 -174 0 0 -25 c0 -24 -2 -25 -75 -25 -73 0 -75 -1 -75 -25 0 -23 -3
-25 -49 -25 -47 0 -50 -2 -53 -27 -2 -22 -9 -29 -30 -31 -26 -3 -28 -6 -28
-53 0 -46 -2 -49 -25 -49 l-25 0 0 -150 0 -150 25 0 c21 0 25 -5 25 -30 0 -25
4 -30 25 -30 18 0 25 -5 25 -20 0 -15 7 -20 25 -20 20 0 25 -5 25 -24 0 -22 4
-23 87 -30 47 -3 140 -3 205 0 115 7 118 8 118 31 0 21 4 23 50 23 47 0 50 2
50 26 0 24 2 25 53 22 l52 -3 3 -47 3 -48 75 0 74 0 0 535 0 535 -25 0 c-20 0
-25 5 -25 25 0 20 -5 25 -25 25 -20 0 -25 5 -25 25 0 23 -4 25 -44 25 -72 0
-106 10 -106 31 0 18 -11 19 -180 19 -169 0 -180 -1 -180 -19z m408 -746 c2
-55 0 -124 -3 -152 -6 -48 -9 -53 -31 -53 -19 0 -24 -5 -24 -25 0 -23 -3 -25
-50 -25 -47 0 -50 -2 -50 -25 l0 -25 -125 0 -125 0 0 25 c0 20 -5 25 -24 25
-29 0 -36 32 -36 168 0 92 0 92 25 92 20 0 25 5 25 25 0 21 5 25 30 25 25 0
30 4 30 25 l0 25 178 -2 177 -3 3 -100z"/>
<path d="M6400 3151 c0 -22 -40 -31 -142 -31 -66 0 -68 -1 -68 -25 0 -20 -5
-25 -25 -25 -22 0 -25 -4 -25 -37 0 -21 3 -55 6 -75 6 -32 11 -38 30 -38 19 0
24 5 24 25 l0 25 100 0 100 0 0 25 c0 25 1 25 80 25 79 0 80 0 80 -25 0 -24 2
-25 75 -25 l75 0 0 -30 c0 -23 5 -30 19 -30 24 0 31 -35 31 -156 l0 -94 -180
0 -180 0 0 -25 c0 -24 -2 -25 -75 -25 -73 0 -75 -1 -75 -25 0 -21 -5 -25 -30
-25 -25 0 -30 -4 -30 -25 0 -20 -5 -25 -25 -25 -20 0 -25 -5 -25 -24 0 -18 -6
-25 -22 -28 -20 -3 -23 -10 -26 -50 -3 -39 -7 -48 -22 -48 -15 0 -20 -10 -25
-54 -4 -30 -4 -77 0 -105 6 -41 11 -51 26 -51 16 0 19 -7 19 -50 0 -47 2 -50
25 -50 20 0 25 -5 25 -25 0 -21 5 -25 30 -25 25 0 30 -4 30 -23 0 -23 3 -24
118 -31 65 -3 158 -3 205 0 75 6 87 9 87 25 0 14 11 20 50 25 44 6 50 9 50 30
0 22 4 24 50 24 l50 0 0 -50 0 -50 100 0 100 0 0 460 c0 443 -1 460 -19 460
-20 0 -31 39 -31 113 0 33 -3 37 -25 37 -20 0 -25 5 -25 25 0 20 -5 25 -25 25
-20 0 -25 5 -25 24 0 23 -4 25 -52 28 -46 3 -53 6 -56 26 -3 22 -5 22 -178 22
-163 0 -174 -1 -174 -19z m360 -796 l0 -155 -25 0 c-20 0 -25 -5 -25 -25 0
-23 -3 -25 -50 -25 -47 0 -50 -2 -50 -25 l0 -25 -105 0 -105 0 0 25 c0 21 -5
25 -30 25 -25 0 -30 4 -30 25 0 18 -5 25 -20 25 -19 0 -20 7 -20 105 l0 105
25 0 c20 0 25 5 25 25 0 20 5 25 25 25 20 0 25 5 25 25 l0 25 180 0 180 0 0
-155z"/>
<path d="M4916 3122 c-3 -5 -2 -41 1 -80 6 -67 7 -72 29 -72 23 0 24 -3 24
-74 0 -70 1 -75 23 -78 20 -3 22 -9 25 -80 3 -75 4 -78 27 -78 24 0 25 -2 25
-80 0 -79 0 -80 25 -80 25 0 25 0 25 -95 0 -95 0 -95 25 -95 25 0 25 -1 25
-80 0 -79 0 -80 25 -80 23 0 25 -4 25 -44 0 -72 10 -106 31 -106 14 0 19 -7
19 -25 l0 -25 155 0 155 0 0 50 c0 47 2 50 25 50 23 0 25 3 25 50 0 47 2 50
25 50 24 0 25 2 25 75 0 73 1 75 25 75 23 0 25 4 25 43 0 77 11 117 31 117 15
0 19 8 19 38 0 70 11 112 30 112 20 0 30 52 30 151 0 51 3 59 19 59 23 0 31
40 31 163 0 87 0 87 26 87 22 0 25 4 22 28 l-3 27 -125 0 -125 0 -3 -77 c-2
-68 -5 -78 -21 -78 -23 0 -31 -41 -31 -162 0 -82 -1 -87 -22 -90 -21 -3 -23
-9 -26 -80 -3 -75 -4 -78 -27 -78 -25 0 -25 0 -25 -100 l0 -100 -25 0 c-24 0
-25 -3 -25 -55 0 -60 -3 -62 -69 -49 -29 6 -31 9 -31 54 0 26 -3 81 -6 123 -6
64 -10 77 -24 77 -19 0 -30 42 -30 113 0 29 -4 37 -19 37 -20 0 -31 40 -31
118 0 34 -3 42 -19 42 -21 0 -31 34 -31 106 0 36 -3 44 -19 44 -20 0 -31 39
-31 111 0 34 -2 37 -37 43 -56 9 -211 7 -217 -2z"/>
</g>
</svg>
